<svg data-v-423bf9ae="" xmlns="http://www.w3.org/2000/svg" viewBox="0 0 555 90" class="iconLeft"><!----><!----><!----><g data-v-423bf9ae="" id="c545a3de-3c3e-4b88-b83b-99fdef4c684d" fill="white" transform="matrix(5.410279456668789,0,0,5.410279456668789,111.41786465029782,0.4463474751451244)"><path d="M1.41 13.64L1.41 3.63L4.97 3.63L4.97 3.63Q6.29 3.63 7.29 3.99L7.29 3.99L7.29 3.99Q8.30 4.34 8.98 4.97L8.98 4.97L8.98 4.97Q9.65 5.59 10.00 6.45L10.00 6.45L10.00 6.45Q10.34 7.30 10.34 8.30L10.34 8.30L10.34 8.30Q10.34 8.93 10.20 9.57L10.20 9.57L10.20 9.57Q10.06 10.21 9.77 10.80L9.77 10.80L9.77 10.80Q9.47 11.40 9.02 11.92L9.02 11.92L9.02 11.92Q8.57 12.43 7.95 12.82L7.95 12.82L7.95 12.82Q7.32 13.21 6.52 13.43L6.52 13.43L6.52 13.43Q5.71 13.64 4.72 13.64L4.72 13.64L1.41 13.64ZM3.10 4.83L3.10 12.44L4.98 12.44L4.98 12.44Q5.89 12.44 6.57 12.14L6.57 12.14L6.57 12.14Q7.25 11.83 7.69 11.31L7.69 11.31L7.69 11.31Q8.13 10.79 8.35 10.08L8.35 10.08L8.35 10.08Q8.57 9.37 8.57 8.56L8.57 8.56L8.57 8.56Q8.57 7.67 8.32 6.98L8.32 6.98L8.32 6.98Q8.07 6.29 7.58 5.81L7.58 5.81L7.58 5.81Q7.09 5.33 6.38 5.08L6.38 5.08L6.38 5.08Q5.67 4.83 4.76 4.83L4.76 4.83L3.10 4.83ZM18.34 12.15L18.34 12.98L18.34 12.98Q18.04 13.19 17.69 13.34L17.69 13.34L17.69 13.34Q17.34 13.49 16.97 13.59L16.97 13.59L16.97 13.59Q16.60 13.69 16.24 13.74L16.24 13.74L16.24 13.74Q15.87 13.78 15.54 13.78L15.54 13.78L15.54 13.78Q14.79 13.78 14.13 13.55L14.13 13.55L14.13 13.55Q13.48 13.32 13.00 12.87L13.00 12.87L13.00 12.87Q12.52 12.41 12.24 11.75L12.24 11.75L12.24 11.75Q11.97 11.09 11.97 10.24L11.97 10.24L11.97 10.24Q11.97 9.33 12.28 8.59L12.28 8.59L12.28 8.59Q12.58 7.85 13.10 7.34L13.10 7.34L13.10 7.34Q13.62 6.82 14.30 6.54L14.30 6.54L14.30 6.54Q14.98 6.26 15.72 6.26L15.72 6.26L15.72 6.26Q16.33 6.26 16.86 6.46L16.86 6.46L16.86 6.46Q17.39 6.67 17.78 7.06L17.78 7.06L17.78 7.06Q18.16 7.46 18.38 8.05L18.38 8.05L18.38 8.05Q18.60 8.65 18.60 9.43L18.60 9.43L18.60 9.43Q18.60 9.63 18.58 9.84L18.58 9.84L18.58 9.84Q18.57 10.06 18.53 10.26L18.53 10.26L13.69 10.26L13.69 10.26Q13.69 10.81 13.88 11.24L13.88 11.24L13.88 11.24Q14.08 11.66 14.43 11.95L14.43 11.95L14.43 11.95Q14.79 12.23 15.29 12.38L15.29 12.38L15.29 12.38Q15.78 12.52 16.39 12.52L16.39 12.52L16.39 12.52Q16.56 12.52 16.79 12.51L16.79 12.51L16.79 12.51Q17.01 12.50 17.27 12.46L17.27 12.46L17.27 12.46Q17.53 12.41 17.81 12.34L17.81 12.34L17.81 12.34Q18.08 12.27 18.34 12.15L18.34 12.15ZM13.69 9.45L17.06 9.45L17.06 9.45Q17.06 8.96 16.94 8.58L16.94 8.58L16.94 8.58Q16.81 8.20 16.59 7.95L16.59 7.95L16.59 7.95Q16.37 7.70 16.08 7.57L16.08 7.57L16.08 7.57Q15.79 7.44 15.46 7.44L15.46 7.44L15.46 7.44Q15.08 7.44 14.76 7.59L14.76 7.59L14.76 7.59Q14.44 7.75 14.20 8.02L14.20 8.02L14.20 8.02Q13.96 8.29 13.82 8.65L13.82 8.65L13.82 8.65Q13.69 9.02 13.69 9.45L13.69 9.45ZM24.40 12.58L24.40 12.58L24.40 12.58Q24.23 12.73 23.98 12.94L23.98 12.94L23.98 12.94Q23.73 13.15 23.42 13.33L23.42 13.33L23.42 13.33Q23.12 13.52 22.76 13.65L22.76 13.65L22.76 13.65Q22.40 13.78 22.00 13.78L22.00 13.78L22.00 13.78Q21.60 13.78 21.26 13.63L21.26 13.63L21.26 13.63Q20.91 13.49 20.65 13.22L20.65 13.22L20.65 13.22Q20.40 12.96 20.25 12.60L20.25 12.60L20.25 12.60Q20.10 12.23 20.10 11.79L20.10 11.79L20.10 11.79Q20.10 11.32 20.29 10.88L20.29 10.88L20.29 10.88Q20.48 10.43 20.92 10.08L20.92 10.08L20.92 10.08Q21.36 9.73 22.09 9.52L22.09 9.52L22.09 9.52Q22.81 9.30 23.88 9.30L23.88 9.30L24.38 9.30L24.38 8.74L24.38 8.74Q24.38 8.44 24.27 8.20L24.27 8.20L24.27 8.20Q24.17 7.96 23.99 7.79L23.99 7.79L23.99 7.79Q23.80 7.62 23.55 7.53L23.55 7.53L23.55 7.53Q23.29 7.44 22.98 7.44L22.98 7.44L22.98 7.44Q22.73 7.44 22.45 7.50L22.45 7.50L22.45 7.50Q22.17 7.56 21.90 7.66L21.90 7.66L21.90 7.66Q21.62 7.77 21.36 7.91L21.36 7.91L21.36 7.91Q21.10 8.05 20.90 8.21L20.90 8.21L20.77 8.14L20.46 6.99L20.46 6.99Q21.29 6.56 22.00 6.41L22.00 6.41L22.00 6.41Q22.71 6.26 23.33 6.26L23.33 6.26L23.33 6.26Q23.97 6.26 24.48 6.39L24.48 6.39L24.48 6.39Q24.98 6.52 25.33 6.79L25.33 6.79L25.33 6.79Q25.68 7.06 25.86 7.48L25.86 7.48L25.86 7.48Q26.04 7.89 26.04 8.46L26.04 8.46L26.04 11.81L26.04 11.81Q26.04 11.91 26.06 12.03L26.06 12.03L26.06 12.03Q26.07 12.15 26.12 12.26L26.12 12.26L26.12 12.26Q26.17 12.37 26.27 12.45L26.27 12.45L26.27 12.45Q26.37 12.52 26.54 12.52L26.54 12.52L26.54 12.52Q26.63 12.52 26.77 12.50L26.77 12.50L26.77 12.50Q26.91 12.47 27.04 12.41L27.04 12.41L27.04 13.23L27.04 13.23Q26.67 13.48 26.31 13.63L26.31 13.63L26.31 13.63Q25.94 13.78 25.59 13.78L25.59 13.78L25.59 13.78Q25.32 13.78 25.12 13.68L25.12 13.68L25.12 13.68Q24.92 13.58 24.79 13.41L24.79 13.41L24.79 13.41Q24.65 13.24 24.56 13.03L24.56 13.03L24.56 13.03Q24.47 12.81 24.40 12.58ZM24.38 11.70L24.38 10.11L23.95 10.11L23.95 10.11Q23.24 10.11 22.80 10.21L22.80 10.21L22.80 10.21Q22.37 10.31 22.13 10.48L22.13 10.48L22.13 10.48Q21.89 10.66 21.81 10.89L21.81 10.89L21.81 10.89Q21.73 11.12 21.73 11.38L21.73 11.38L21.73 11.38Q21.73 11.66 21.81 11.87L21.81 11.87L21.81 11.87Q21.90 12.09 22.04 12.23L22.04 12.23L22.04 12.23Q22.18 12.37 22.37 12.45L22.37 12.45L22.37 12.45Q22.56 12.52 22.78 12.52L22.78 12.52L22.78 12.52Q22.94 12.52 23.12 12.49L23.12 12.49L23.12 12.49Q23.30 12.45 23.49 12.35L23.49 12.35L23.49 12.35Q23.69 12.26 23.91 12.10L23.91 12.10L23.91 12.10Q24.12 11.94 24.38 11.70L24.38 11.70ZM28.52 13.64L28.52 2.69L30.17 2.69L30.17 13.64L28.52 13.64ZM40.37 11.80L40.37 12.69L40.37 12.69Q40.00 13.01 39.56 13.22L39.56 13.22L39.56 13.22Q39.12 13.43 38.67 13.55L38.67 13.55L38.67 13.55Q38.21 13.68 37.77 13.73L37.77 13.73L37.77 13.73Q37.33 13.78 36.98 13.78L36.98 13.78L36.98 13.78Q35.97 13.78 35.11 13.43L35.11 13.43L35.11 13.43Q34.24 13.08 33.61 12.44L33.61 12.44L33.61 12.44Q32.97 11.81 32.61 10.90L32.61 10.90L32.61 10.90Q32.25 9.99 32.25 8.89L32.25 8.89L32.25 8.89Q32.25 8.04 32.46 7.31L32.46 7.31L32.46 7.31Q32.67 6.58 33.04 5.98L33.04 5.98L33.04 5.98Q33.42 5.39 33.94 4.92L33.94 4.92L33.94 4.92Q34.46 4.46 35.08 4.14L35.08 4.14L35.08 4.14Q35.69 3.82 36.38 3.66L36.38 3.66L36.38 3.66Q37.07 3.49 37.80 3.49L37.80 3.49L37.80 3.49Q38.03 3.49 38.32 3.51L38.32 3.51L38.32 3.51Q38.62 3.53 38.95 3.58L38.95 3.58L38.95 3.58Q39.29 3.62 39.65 3.69L39.65 3.69L39.65 3.69Q40.00 3.77 40.37 3.88L40.37 3.88L40.10 5.20L39.96 5.27L39.96 5.27Q39.25 4.94 38.63 4.82L38.63 4.82L38.63 4.82Q38.01 4.70 37.56 4.70L37.56 4.70L37.56 4.70Q36.78 4.70 36.13 4.99L36.13 4.99L36.13 4.99Q35.47 5.29 35 5.81L35 5.81L35 5.81Q34.53 6.33 34.27 7.04L34.27 7.04L34.27 7.04Q34.00 7.75 34.00 8.56L34.00 8.56L34.00 8.56Q34.00 9.36 34.25 10.08L34.25 10.08L34.25 10.08Q34.49 10.79 34.97 11.34L34.97 11.34L34.97 11.34Q35.44 11.88 36.13 12.20L36.13 12.20L36.13 12.20Q36.83 12.52 37.72 12.52L37.72 12.52L37.72 12.52Q38.29 12.52 38.96 12.37L38.96 12.37L38.96 12.37Q39.64 12.21 40.37 11.80L40.37 11.80ZM42.31 13.64L42.31 2.69L43.96 2.69L43.96 7.57L43.96 7.57Q44.21 7.34 44.52 7.11L44.52 7.11L44.52 7.11Q44.82 6.88 45.16 6.69L45.16 6.69L45.16 6.69Q45.50 6.50 45.88 6.38L45.88 6.38L45.88 6.38Q46.25 6.26 46.66 6.26L46.66 6.26L46.66 6.26Q47.15 6.26 47.55 6.45L47.55 6.45L47.55 6.45Q47.95 6.63 48.24 6.97L48.24 6.97L48.24 6.97Q48.53 7.30 48.69 7.77L48.69 7.77L48.69 7.77Q48.84 8.24 48.84 8.82L48.84 8.82L48.84 13.64L47.18 13.64L47.18 9.00L47.18 9.00Q47.18 8.63 47.08 8.36L47.08 8.36L47.08 8.36Q46.98 8.08 46.80 7.90L46.80 7.90L46.80 7.90Q46.62 7.71 46.37 7.62L46.37 7.62L46.37 7.62Q46.12 7.53 45.83 7.53L45.83 7.53L45.83 7.53Q45.33 7.53 44.88 7.79L44.88 7.79L44.88 7.79Q44.43 8.05 43.96 8.47L43.96 8.47L43.96 13.64L42.31 13.64ZM54.19 13.78L54.19 13.78L54.19 13.78Q53.33 13.78 52.68 13.49L52.68 13.49L52.68 13.49Q52.03 13.21 51.58 12.72L51.58 12.72L51.58 12.72Q51.14 12.23 50.91 11.59L50.91 11.59L50.91 11.59Q50.68 10.94 50.68 10.23L50.68 10.23L50.68 10.23Q50.68 9.40 50.98 8.68L50.98 8.68L50.98 8.68Q51.27 7.96 51.80 7.42L51.80 7.42L51.80 7.42Q52.33 6.88 53.06 6.57L53.06 6.57L53.06 6.57Q53.79 6.26 54.67 6.26L54.67 6.26L54.67 6.26Q55.52 6.26 56.18 6.55L56.18 6.55L56.18 6.55Q56.83 6.84 57.28 7.33L57.28 7.33L57.28 7.33Q57.72 7.82 57.95 8.47L57.95 8.47L57.95 8.47Q58.18 9.11 58.18 9.83L58.18 9.83L58.18 9.83Q58.18 10.66 57.88 11.39L57.88 11.39L57.88 11.39Q57.59 12.11 57.05 12.64L57.05 12.64L57.05 12.64Q56.52 13.17 55.79 13.48L55.79 13.48L55.79 13.48Q55.06 13.78 54.19 13.78ZM54.48 12.60L54.48 12.60L54.48 12.60Q54.91 12.60 55.28 12.42L55.28 12.42L55.28 12.42Q55.64 12.24 55.90 11.91L55.90 11.91L55.90 11.91Q56.16 11.59 56.30 11.14L56.30 11.14L56.30 11.14Q56.44 10.68 56.44 10.14L56.44 10.14L56.44 10.14Q56.44 9.60 56.30 9.12L56.30 9.12L56.30 9.12Q56.16 8.63 55.90 8.26L55.90 8.26L55.90 8.26Q55.63 7.89 55.25 7.67L55.25 7.67L55.25 7.67Q54.87 7.44 54.38 7.44L54.38 7.44L54.38 7.44Q53.94 7.44 53.57 7.63L53.57 7.63L53.57 7.63Q53.21 7.81 52.95 8.14L52.95 8.14L52.95 8.14Q52.70 8.47 52.55 8.92L52.55 8.92L52.55 8.92Q52.41 9.38 52.41 9.92L52.41 9.92L52.41 9.92Q52.41 10.46 52.55 10.94L52.55 10.94L52.55 10.94Q52.69 11.43 52.96 11.80L52.96 11.80L52.96 11.80Q53.22 12.17 53.61 12.38L53.61 12.38L53.61 12.38Q53.99 12.60 54.48 12.60ZM63.09 13.78L63.09 13.78L63.09 13.78Q62.23 13.78 61.58 13.49L61.58 13.49L61.58 13.49Q60.93 13.21 60.48 12.72L60.48 12.72L60.48 12.72Q60.04 12.23 59.81 11.59L59.81 11.59L59.81 11.59Q59.58 10.94 59.58 10.23L59.58 10.23L59.58 10.23Q59.58 9.40 59.88 8.68L59.88 8.68L59.88 8.68Q60.17 7.96 60.70 7.42L60.70 7.42L60.70 7.42Q61.23 6.88 61.96 6.57L61.96 6.57L61.96 6.57Q62.69 6.26 63.57 6.26L63.57 6.26L63.57 6.26Q64.42 6.26 65.08 6.55L65.08 6.55L65.08 6.55Q65.73 6.84 66.18 7.33L66.18 7.33L66.18 7.33Q66.62 7.82 66.85 8.47L66.85 8.47L66.85 8.47Q67.08 9.11 67.08 9.83L67.08 9.83L67.08 9.83Q67.08 10.66 66.78 11.39L66.78 11.39L66.78 11.39Q66.49 12.11 65.95 12.64L65.95 12.64L65.95 12.64Q65.42 13.17 64.69 13.48L64.69 13.48L64.69 13.48Q63.96 13.78 63.09 13.78ZM63.38 12.60L63.38 12.60L63.38 12.60Q63.81 12.60 64.18 12.42L64.18 12.42L64.18 12.42Q64.54 12.24 64.80 11.91L64.80 11.91L64.80 11.91Q65.06 11.59 65.20 11.14L65.20 11.14L65.20 11.14Q65.34 10.68 65.34 10.14L65.34 10.14L65.34 10.14Q65.34 9.60 65.20 9.12L65.20 9.12L65.20 9.12Q65.06 8.63 64.80 8.26L64.80 8.26L64.80 8.26Q64.53 7.89 64.15 7.67L64.15 7.67L64.15 7.67Q63.77 7.44 63.28 7.44L63.28 7.44L63.28 7.44Q62.84 7.44 62.47 7.63L62.47 7.63L62.47 7.63Q62.11 7.81 61.85 8.14L61.85 8.14L61.85 8.14Q61.60 8.47 61.46 8.92L61.46 8.92L61.46 8.92Q61.31 9.38 61.31 9.92L61.31 9.92L61.31 9.92Q61.31 10.46 61.45 10.94L61.45 10.94L61.45 10.94Q61.59 11.43 61.86 11.80L61.86 11.80L61.86 11.80Q62.13 12.17 62.51 12.38L62.51 12.38L62.51 12.38Q62.89 12.60 63.38 12.60ZM68.47 13.30L68.76 12.06L68.89 11.98L68.89 11.98Q69.15 12.13 69.44 12.24L69.44 12.24L69.44 12.24Q69.73 12.36 70.02 12.44L70.02 12.44L70.02 12.44Q70.31 12.52 70.58 12.56L70.58 12.56L70.58 12.56Q70.85 12.60 71.09 12.60L71.09 12.60L71.09 12.60Q71.72 12.60 72.07 12.34L72.07 12.34L72.07 12.34Q72.42 12.08 72.42 11.68L72.42 11.68L72.42 11.68Q72.42 11.40 72.26 11.22L72.26 11.22L72.26 11.22Q72.10 11.05 71.84 10.92L71.84 10.92L71.84 10.92Q71.57 10.79 71.24 10.70L71.24 10.70L71.24 10.70Q70.90 10.60 70.55 10.50L70.55 10.50L70.55 10.50Q70.20 10.39 69.86 10.25L69.86 10.25L69.86 10.25Q69.53 10.12 69.27 9.91L69.27 9.91L69.27 9.91Q69.00 9.69 68.84 9.39L68.84 9.39L68.84 9.39Q68.68 9.08 68.68 8.64L68.68 8.64L68.68 8.64Q68.68 8.14 68.90 7.70L68.90 7.70L68.90 7.70Q69.11 7.27 69.51 6.95L69.51 6.95L69.51 6.95Q69.91 6.63 70.48 6.45L70.48 6.45L70.48 6.45Q71.05 6.26 71.76 6.26L71.76 6.26L71.76 6.26Q71.94 6.26 72.18 6.28L72.18 6.28L72.18 6.28Q72.41 6.29 72.67 6.32L72.67 6.32L72.67 6.32Q72.93 6.35 73.19 6.40L73.19 6.40L73.19 6.40Q73.45 6.45 73.67 6.52L73.67 6.52L73.37 7.75L73.22 7.83L73.22 7.83Q73.01 7.73 72.78 7.66L72.78 7.66L72.78 7.66Q72.54 7.58 72.31 7.54L72.31 7.54L72.31 7.54Q72.07 7.49 71.85 7.47L71.85 7.47L71.85 7.47Q71.63 7.44 71.46 7.44L71.46 7.44L71.46 7.44Q70.85 7.44 70.52 7.68L70.52 7.68L70.52 7.68Q70.18 7.92 70.18 8.33L70.18 8.33L70.18 8.33Q70.18 8.61 70.34 8.79L70.34 8.79L70.34 8.79Q70.51 8.97 70.77 9.10L70.77 9.10L70.77 9.10Q71.03 9.22 71.37 9.31L71.37 9.31L71.37 9.31Q71.72 9.41 72.07 9.51L72.07 9.51L72.07 9.51Q72.42 9.62 72.76 9.75L72.76 9.75L72.76 9.75Q73.10 9.89 73.37 10.10L73.37 10.10L73.37 10.10Q73.63 10.32 73.79 10.62L73.79 10.62L73.79 10.62Q73.96 10.93 73.96 11.38L73.96 11.38L73.96 11.38Q73.96 11.89 73.74 12.33L73.74 12.33L73.74 12.33Q73.52 12.77 73.12 13.09L73.12 13.09L73.12 13.09Q72.71 13.41 72.15 13.60L72.15 13.60L72.15 13.60Q71.58 13.78 70.89 13.78L70.89 13.78L70.89 13.78Q70.32 13.78 69.69 13.66L69.69 13.66L69.69 13.66Q69.05 13.54 68.47 13.30L68.47 13.30ZM81.71 12.15L81.71 12.98L81.71 12.98Q81.41 13.19 81.06 13.34L81.06 13.34L81.06 13.34Q80.71 13.49 80.34 13.59L80.34 13.59L80.34 13.59Q79.97 13.69 79.61 13.74L79.61 13.74L79.61 13.74Q79.24 13.78 78.91 13.78L78.91 13.78L78.91 13.78Q78.16 13.78 77.50 13.55L77.50 13.55L77.50 13.55Q76.85 13.32 76.37 12.87L76.37 12.87L76.37 12.87Q75.89 12.41 75.61 11.75L75.61 11.75L75.61 11.75Q75.34 11.09 75.34 10.24L75.34 10.24L75.34 10.24Q75.34 9.33 75.65 8.59L75.65 8.59L75.65 8.59Q75.95 7.85 76.47 7.34L76.47 7.34L76.47 7.34Q76.99 6.82 77.67 6.54L77.67 6.54L77.67 6.54Q78.35 6.26 79.08 6.26L79.08 6.26L79.08 6.26Q79.70 6.26 80.23 6.46L80.23 6.46L80.23 6.46Q80.76 6.67 81.15 7.06L81.15 7.06L81.15 7.06Q81.53 7.46 81.75 8.05L81.75 8.05L81.75 8.05Q81.97 8.65 81.97 9.43L81.97 9.43L81.97 9.43Q81.97 9.63 81.95 9.84L81.95 9.84L81.95 9.84Q81.94 10.06 81.89 10.26L81.89 10.26L77.05 10.26L77.05 10.26Q77.05 10.81 77.25 11.24L77.25 11.24L77.25 11.24Q77.44 11.66 77.80 11.95L77.80 11.95L77.80 11.95Q78.16 12.23 78.65 12.38L78.65 12.38L78.65 12.38Q79.15 12.52 79.75 12.52L79.75 12.52L79.75 12.52Q79.93 12.52 80.15 12.51L80.15 12.51L80.15 12.51Q80.38 12.50 80.64 12.46L80.64 12.46L80.64 12.46Q80.90 12.41 81.18 12.34L81.18 12.34L81.18 12.34Q81.45 12.27 81.71 12.15L81.71 12.15ZM77.05 9.45L80.43 9.45L80.43 9.45Q80.43 8.96 80.31 8.58L80.31 8.58L80.31 8.58Q80.18 8.20 79.96 7.95L79.96 7.95L79.96 7.95Q79.74 7.70 79.45 7.57L79.45 7.57L79.45 7.57Q79.16 7.44 78.83 7.44L78.83 7.44L78.83 7.44Q78.45 7.44 78.13 7.59L78.13 7.59L78.13 7.59Q77.81 7.75 77.57 8.02L77.57 8.02L77.57 8.02Q77.33 8.29 77.19 8.65L77.19 8.65L77.19 8.65Q77.05 9.02 77.05 9.45L77.05 9.45Z"></path></g><!----><g data-v-423bf9ae="" id="06802dc6-b9d7-4987-a92f-e47e1dfef5e0" transform="matrix(1.1005312487405419,0,0,1.1005312487405419,-5.02597188696123,-9.915839641511667)" stroke="none" fill="white"><path d="M13.384 44.255L5.163 74.938a4.794 4.794 0 0 0 3.387 5.864l15.76 4.222-10.926-40.769zM22.46 53.458l9.078 33.882a4.794 4.794 0 0 0 5.864 3.387l17.609-4.721L22.46 53.458zM49.642 45.608a5.907 5.907 0 0 0-1.043-1.334l-1.379-1.33a5.677 5.677 0 0 0-1.38-.986 4.402 4.402 0 0 0-1.539-.464 3.517 3.517 0 0 0-1.578.205c-.53.191-1.025.526-1.485 1.003-.473.489-.791.999-.957 1.53a3.532 3.532 0 0 0-.139 1.576c.074.521.247 1.028.521 1.521.272.493.617.941 1.035 1.344l1.379 1.33c.417.402.874.728 1.371.977s1.01.398 1.537.447a3.648 3.648 0 0 0 1.589-.213c.529-.192 1.03-.532 1.502-1.021.461-.477.773-.981.939-1.512a3.6 3.6 0 0 0 .148-1.568 4.085 4.085 0 0 0-.521-1.505z"></path><path d="M93.597 47.856L54.855 9.114 27.386 9.11a6.388 6.388 0 0 0-6.387 6.387l-.001 27.473 38.743 38.743a4.787 4.787 0 0 0 6.772 0l27.083-27.086a4.785 4.785 0 0 0 .001-6.771zM35.28 23.395a4.785 4.785 0 0 1-6.772 0 4.788 4.788 0 1 1 6.772 0zm17.654 26.233c-.347.933-.917 1.81-1.71 2.634-.806.835-1.671 1.446-2.596 1.832a7.169 7.169 0 0 1-2.786.579 6.825 6.825 0 0 1-2.727-.574 8.109 8.109 0 0 1-2.422-1.626l-1.379-1.33a8.172 8.172 0 0 1-1.73-2.378 7.062 7.062 0 0 1-.692-2.705 6.942 6.942 0 0 1 .459-2.804c.354-.938.926-1.819 1.72-2.643.806-.835 1.672-1.446 2.596-1.832.925-.386 1.851-.57 2.777-.552s1.833.219 2.72.601a8.165 8.165 0 0 1 2.438 1.644l1.378 1.33a8.286 8.286 0 0 1 1.724 2.351c.42.866.649 1.761.69 2.687a7.11 7.11 0 0 1-.46 2.786zm8.372 14.531l-8.1-32.368 2.995-.74L64.3 63.419l-2.994.74zm18.56-13.052c-.347.933-.916 1.811-1.71 2.634-.806.835-1.671 1.446-2.597 1.832a7.156 7.156 0 0 1-2.784.579c-.933 0-1.843-.192-2.729-.575s-1.699-.93-2.439-1.645l-1.396-1.346a8.196 8.196 0 0 1-1.723-2.369 6.92 6.92 0 0 1-.691-2.705c-.04-.925.116-1.857.468-2.796.353-.938.926-1.819 1.72-2.642.805-.835 1.671-1.447 2.596-1.833.925-.386 1.851-.576 2.776-.569a6.914 6.914 0 0 1 2.728.592 8.198 8.198 0 0 1 2.431 1.635l1.396 1.346a8.17 8.17 0 0 1 1.731 2.378c.414.872.642 1.771.682 2.696a7.038 7.038 0 0 1-.459 2.788z"></path><path d="M76.558 47.07a5.943 5.943 0 0 0-1.045-1.335l-1.396-1.346a5.658 5.658 0 0 0-1.38-.986 4.294 4.294 0 0 0-1.53-.456 3.568 3.568 0 0 0-1.569.213c-.53.191-1.025.526-1.485 1.003-.461.477-.773.981-.94 1.512a3.758 3.758 0 0 0-.155 1.576 4.11 4.11 0 0 0 .503 1.521c.271.494.617.941 1.035 1.344l1.396 1.346c.418.403.877.731 1.38.986s1.02.407 1.548.456a3.643 3.643 0 0 0 1.587-.213c.53-.192 1.03-.532 1.503-1.022.46-.477.772-.981.939-1.511a3.563 3.563 0 0 0 .14-1.576 4.291 4.291 0 0 0-.531-1.512z"></path></g><!----></svg>