<svg data-v-423bf9ae="" xmlns="http://www.w3.org/2000/svg" viewBox="0 0 475 90" class="iconLeft"><!----><!----><!----><g data-v-423bf9ae="" id="0a31c2e0-9604-4922-bb3b-492ea8600e9b" fill="white" transform="matrix(6.1037640351658435,0,0,6.1037640351658435,103.2248291725592,-4.471007144602062)"><path d="M7.43 4.02L7.43 4.02L8.57 4.02L8.57 4.02Q8.76 4.02 8.76 4.21L8.76 4.21L8.76 12.82L8.76 12.82Q8.76 13.02 8.57 13.02L8.57 13.02L7.95 13.02L7.95 13.02Q7.76 13.02 7.76 12.82L7.76 12.82L7.76 5.39L7.70 5.39L5.53 10.88L5.53 10.88Q5.45 11.06 5.28 11.06L5.28 11.06L4.61 11.06L4.61 11.06Q4.42 11.06 4.37 10.88L4.37 10.88L2.16 5.38L2.10 5.38L2.10 12.82L2.10 12.82Q2.10 13.02 1.92 13.02L1.92 13.02L1.30 13.02L1.30 13.02Q1.11 13.02 1.11 12.82L1.11 12.82L1.11 4.21L1.11 4.21Q1.11 4.02 1.30 4.02L1.30 4.02L2.44 4.02L2.44 4.02Q2.56 4.02 2.60 4.13L2.60 4.13L4.90 9.93L4.97 9.93L7.27 4.13L7.27 4.13Q7.29 4.02 7.43 4.02ZM13.97 13.02L13.97 13.02L12.77 13.02L12.77 13.02Q11.80 13.02 11.25 12.47L11.25 12.47L11.25 12.47Q10.70 11.93 10.70 10.95L10.70 10.95L10.70 7.95L10.70 7.95Q10.70 6.97 11.25 6.43L11.25 6.43L11.25 6.43Q11.80 5.88 12.77 5.88L12.77 5.88L13.97 5.88L13.97 5.88Q14.94 5.88 15.49 6.43L15.49 6.43L15.49 6.43Q16.04 6.97 16.04 7.95L16.04 7.95L16.04 10.95L16.04 10.95Q16.04 11.93 15.49 12.47L15.49 12.47L15.49 12.47Q14.94 13.02 13.97 13.02ZM12.88 12.12L12.88 12.12L13.86 12.12L13.86 12.12Q15.04 12.12 15.04 10.92L15.04 10.92L15.04 7.98L15.04 7.98Q15.04 6.78 13.86 6.78L13.86 6.78L12.88 6.78L12.88 6.78Q11.70 6.78 11.70 7.98L11.70 7.98L11.70 10.92L11.70 10.92Q11.70 12.12 12.88 12.12ZM17.29 5.88L17.29 5.88L17.95 5.88L17.95 5.88Q18.13 5.88 18.17 6.08L18.17 6.08L19.85 12.00L19.92 12.00L21.59 6.08L21.59 6.08Q21.64 5.88 21.83 5.88L21.83 5.88L22.48 5.88L22.48 5.88Q22.68 5.88 22.62 6.08L22.62 6.08L20.61 12.81L20.61 12.81Q20.57 13.02 20.36 13.02L20.36 13.02L19.40 13.02L19.40 13.02Q19.21 13.02 19.15 12.81L19.15 12.81L17.15 6.08L17.15 6.08Q17.09 5.88 17.29 5.88ZM23.94 4.70L23.94 4.70L23.94 3.39L23.94 3.39Q23.94 3.19 24.12 3.19L24.12 3.19L24.77 3.19L24.77 3.19Q24.96 3.19 24.96 3.39L24.96 3.39L24.96 4.70L24.96 4.70Q24.96 4.90 24.77 4.90L24.77 4.90L24.12 4.90L24.12 4.90Q23.94 4.90 23.94 4.70ZM23.94 12.82L23.94 12.82L23.94 6.08L23.94 6.08Q23.94 5.88 24.12 5.88L24.12 5.88L24.77 5.88L24.77 5.88Q24.96 5.88 24.96 6.08L24.96 6.08L24.96 12.82L24.96 12.82Q24.96 13.02 24.77 13.02L24.77 13.02L24.14 13.02L24.14 13.02Q23.94 13.02 23.94 12.82ZM31.86 13.02L31.86 13.02L28.90 13.02L28.90 13.02Q27.93 13.02 27.38 12.47L27.38 12.47L27.38 12.47Q26.82 11.93 26.82 10.95L26.82 10.95L26.82 7.95L26.82 7.95Q26.82 6.97 27.38 6.43L27.38 6.43L27.38 6.43Q27.93 5.88 28.90 5.88L28.90 5.88L30.07 5.88L30.07 5.88Q31.04 5.88 31.58 6.43L31.58 6.43L31.58 6.43Q32.13 6.97 32.13 7.95L32.13 7.95L32.13 9.73L32.13 9.73Q32.13 9.94 31.93 9.94L31.93 9.94L27.97 9.94L27.97 9.94Q27.83 9.94 27.83 10.07L27.83 10.07L27.83 10.92L27.83 10.92Q27.83 12.14 29.01 12.14L29.01 12.14L31.86 12.14L31.86 12.14Q32.06 12.14 32.06 12.33L32.06 12.33L32.06 12.84L32.06 12.84Q32.06 13.02 31.86 13.02ZM27.97 9.20L27.97 9.20L31.00 9.20L31.00 9.20Q31.14 9.20 31.14 9.06L31.14 9.06L31.14 7.98L31.14 7.98Q31.14 6.78 29.96 6.78L29.96 6.78L29.01 6.78L29.01 6.78Q27.83 6.78 27.83 7.98L27.83 7.98L27.83 9.06L27.83 9.06Q27.83 9.20 27.97 9.20ZM40.32 4.02L40.32 4.02L41.45 4.02L41.45 4.02Q41.65 4.02 41.65 4.21L41.65 4.21L41.65 12.82L41.65 12.82Q41.65 13.02 41.45 13.02L41.45 13.02L40.84 13.02L40.84 13.02Q40.64 13.02 40.64 12.82L40.64 12.82L40.64 5.39L40.59 5.39L38.42 10.88L38.42 10.88Q38.33 11.06 38.16 11.06L38.16 11.06L37.49 11.06L37.49 11.06Q37.31 11.06 37.25 10.88L37.25 10.88L35.04 5.38L34.99 5.38L34.99 12.82L34.99 12.82Q34.99 13.02 34.80 13.02L34.80 13.02L34.19 13.02L34.19 13.02Q33.99 13.02 33.99 12.82L33.99 12.82L33.99 4.21L33.99 4.21Q33.99 4.02 34.19 4.02L34.19 4.02L35.32 4.02L35.32 4.02Q35.45 4.02 35.49 4.13L35.49 4.13L37.79 9.93L37.86 9.93L40.15 4.13L40.15 4.13Q40.18 4.02 40.32 4.02ZM46.38 13.02L46.38 13.02L45.65 13.02L45.65 13.02Q44.69 13.02 44.13 12.47L44.13 12.47L44.13 12.47Q43.58 11.93 43.58 10.95L43.58 10.95L43.58 7.95L43.58 7.95Q43.58 6.97 44.13 6.43L44.13 6.43L44.13 6.43Q44.69 5.88 45.65 5.88L45.65 5.88L48.69 5.88L48.69 5.88Q48.89 5.88 48.89 6.08L48.89 6.08L48.89 12.82L48.89 12.82Q48.89 13.02 48.69 13.02L48.69 13.02L48.06 13.02L48.06 13.02Q47.87 13.02 47.87 12.82L47.87 12.82L47.87 12.28L47.81 12.28L47.81 12.28Q47.46 13.02 46.38 13.02ZM47.87 10.84L47.87 10.84L47.87 6.90L47.87 6.90Q47.87 6.78 47.73 6.78L47.73 6.78L45.77 6.78L45.77 6.78Q44.60 6.78 44.60 7.99L44.60 7.99L44.60 10.91L44.60 10.91Q44.60 12.12 45.77 12.12L45.77 12.12L46.56 12.12L46.56 12.12Q47.19 12.12 47.53 11.79L47.53 11.79L47.53 11.79Q47.87 11.45 47.87 10.84ZM51.09 6.78L51.09 6.78L50.32 6.78L50.32 6.78Q50.12 6.78 50.12 6.59L50.12 6.59L50.12 6.08L50.12 6.08Q50.12 5.88 50.32 5.88L50.32 5.88L51.09 5.88L51.09 5.88Q51.23 5.88 51.23 5.75L51.23 5.75L51.23 4.55L51.23 4.55Q51.23 4.35 51.42 4.35L51.42 4.35L52.05 4.35L52.05 4.35Q52.23 4.35 52.23 4.55L52.23 4.55L52.23 5.75L52.23 5.75Q52.23 5.88 52.39 5.88L52.39 5.88L53.87 5.88L53.87 5.88Q54.08 5.88 54.08 6.08L54.08 6.08L54.08 6.59L54.08 6.59Q54.08 6.78 53.87 6.78L53.87 6.78L52.39 6.78L52.39 6.78Q52.23 6.78 52.23 6.90L52.23 6.90L52.23 10.93L52.23 10.93Q52.23 12.12 53.47 12.12L53.47 12.12L54.01 12.12L54.01 12.12Q54.22 12.12 54.22 12.32L54.22 12.32L54.22 12.84L54.22 12.84Q54.22 13.02 54.01 13.02L54.01 13.02L53.34 13.02L53.34 13.02Q52.37 13.02 51.80 12.48L51.80 12.48L51.80 12.48Q51.23 11.94 51.23 10.98L51.23 10.98L51.23 6.90L51.23 6.90Q51.23 6.78 51.09 6.78ZM60.61 13.02L60.61 13.02L57.64 13.02L57.64 13.02Q56.67 13.02 56.12 12.47L56.12 12.47L56.12 12.47Q55.57 11.93 55.57 10.95L55.57 10.95L55.57 7.95L55.57 7.95Q55.57 6.97 56.12 6.43L56.12 6.43L56.12 6.43Q56.67 5.88 57.64 5.88L57.64 5.88L58.81 5.88L58.81 5.88Q59.78 5.88 60.33 6.43L60.33 6.43L60.33 6.43Q60.87 6.97 60.87 7.95L60.87 7.95L60.87 9.73L60.87 9.73Q60.87 9.94 60.68 9.94L60.68 9.94L56.71 9.94L56.71 9.94Q56.57 9.94 56.57 10.07L56.57 10.07L56.57 10.92L56.57 10.92Q56.57 12.14 57.75 12.14L57.75 12.14L60.61 12.14L60.61 12.14Q60.80 12.14 60.80 12.33L60.80 12.33L60.80 12.84L60.80 12.84Q60.80 13.02 60.61 13.02ZM56.71 9.20L56.71 9.20L59.74 9.20L59.74 9.20Q59.88 9.20 59.88 9.06L59.88 9.06L59.88 7.98L59.88 7.98Q59.88 6.78 58.70 6.78L58.70 6.78L57.75 6.78L57.75 6.78Q56.57 6.78 56.57 7.98L56.57 7.98L56.57 9.06L56.57 9.06Q56.57 9.20 56.71 9.20Z"></path></g><!----><g data-v-423bf9ae="" id="a61863eb-140d-47d4-bbd7-c787370b9b8e" transform="matrix(1.089588297211632,0,0,1.089588297211632,-3.331476703954941,-3.331476703954941)" stroke="none" fill="white"><path d="M45 86.3C22.2 86.3 3.7 67.8 3.7 45S22.2 3.7 45 3.7c22.8 0 41.3 18.5 41.3 41.3 0 9.6-3.3 18.9-9.4 26.3-1.8 2.1-4.9 2.4-7 .7-2.1-1.8-2.4-4.9-.7-7 4.6-5.6 7.1-12.6 7.1-19.9 0-17.2-14-31.3-31.3-31.3-17.2 0-31.3 14-31.3 31.3s14 31.3 31.3 31.3c2.8 0 5 2.2 5 5s-2.2 4.9-5 4.9z"></path><path d="M58 23.4c-2.2 0-4.4.8-6 2.5-3.3 3.3-3.3 8.7 0 12.1 1.7 1.7 3.8 2.5 6 2.5s4.4-.8 6-2.5c3.3-3.3 3.3-8.7 0-12.1-1.6-1.6-3.8-2.5-6-2.5zM32 49.5c-2.2 0-4.4.8-6 2.5-3.3 3.3-3.3 8.7 0 12.1 1.7 1.7 3.8 2.5 6 2.5s4.4-.8 6-2.5c3.3-3.3 3.3-8.7 0-12.1-1.7-1.7-3.8-2.5-6-2.5zM58 49.5c-2.2 0-4.4.8-6 2.5-3.3 3.3-3.3 8.7 0 12.1 1.7 1.7 3.8 2.5 6 2.5s4.4-.8 6-2.5c3.3-3.3 3.3-8.7 0-12.1-1.6-1.7-3.8-2.5-6-2.5zM32 23.4c-2.2 0-4.4.8-6 2.5-3.3 3.3-3.3 8.7 0 12.1 1.7 1.7 3.9 2.5 6 2.5 2.2 0 4.4-.8 6-2.5 3.3-3.3 3.3-8.7 0-12.1-1.7-1.6-3.8-2.5-6-2.5z"></path><g><path d="M45 41.2c-1 0-1.9.4-2.7 1.1-1.5 1.5-1.5 3.9 0 5.4.7.7 1.7 1.1 2.7 1.1 1 0 1.9-.4 2.7-1.1 1.5-1.5 1.5-3.9 0-5.4-.8-.7-1.7-1.1-2.7-1.1z"></path></g><path d="M81.3 86.3H44.6c-2.8 0-5-2.2-5-5s2.2-5 5-5h36.7c2.8 0 5 2.2 5 5s-2.3 5-5 5z"></path></g><!----></svg>